# xmcd CD database file
#
# Track frame offsets:
#	150
#	22360
#	42203
#	60152
#	87771
#	107787
#	134267
#	151453
#	171036
#	189653
#
# Disc length: 2799 seconds
#
# Revision: 0
# Processed by: cddbd v1.5.2PL0 Copyright (c) Steve Scherf et al.
# Submitted via: CDex 1.51
#
DISCID=7e0aed0a
DTITLE=O.B. Buchana - Southern Soul Country Boy
DYEAR=2008
DGENRE=Blues
TTITLE0=Your Just Playin' With It
TTITLE1=I'll Be Your Shugga Daddy
TTITLE2=Stealing It
TTITLE3=Just Because He's Good To You (Extended Version)
TTITLE4=Southern Soul Country Boy
TTITLE5=Sweet Memories
TTITLE6=She's Got The Best Lovin' That Ever Put On A Pair Of Drawers
TTITLE7=This Party Is A Mutha
TTITLE8=I'm Gonna Change
TTITLE9=The Blues Is My Thang
EXTD=YEAR: 2008
EXTT0=
EXTT1=
EXTT2=
EXTT3=
EXTT4=
EXTT5=
EXTT6=
EXTT7=
EXTT8=
EXTT9=
PLAYORDER=
